<svg width="61" height="61" viewBox="0 0 61 61" fill="none" xmlns="http://www.w3.org/2000/svg">
<g clip-path="url(#clip0)">
<path d="M50.125 60.5559H10.125L0.125 40.5559V25.5559H5.125L10.125 10.5559H50.125L55.125 25.5559H60.125V40.5559L50.125 60.5559Z" fill="#C6C6C6"/>
<path d="M50.125 5.55591H10.125V10.5559H50.125V5.55591Z" fill="#EFEFEF"/>
<path d="M40.125 0.555908H20.125V5.55591H40.125V0.555908Z" fill="#003F65"/>
<path d="M60.125 35.5559V40.5559L50.125 60.5559H10.125L0.125 40.5559V35.5559L30.125 30.5559L60.125 35.5559Z" fill="#0DBBF2"/>
<path d="M60.125 40.5559V30.5559L30.125 25.5559L0.125 30.5559V40.5559L30.125 35.5559L60.125 40.5559Z" fill="#12D9B5"/>
<path d="M60.125 30.5559V25.5559L30.125 20.5559L0.125 25.5559V30.5559L30.125 25.5559L60.125 30.5559Z" fill="#EFEFEF"/>
<path d="M60.125 60.5559H0.125V55.5559L5.125 50.5559L10.125 55.5559L15.125 50.5559L20.125 55.5559L25.125 50.5559L30.125 55.5559L35.125 50.5559L40.125 55.5559L45.125 50.5559L50.125 55.5559L55.125 50.5559L60.125 55.5559V60.5559Z" fill="#003F65"/>
</g>
<defs>
<clipPath id="clip0">
<rect width="60" height="60" fill="white" transform="translate(0.125 0.555908)"/>
</clipPath>
</defs>
</svg>
