<svg width="61" height="61" viewBox="0 0 61 61" fill="none" xmlns="http://www.w3.org/2000/svg">
<path d="M50.125 50.877H10.125L0.125 40.877V10.877L10.125 0.876953H50.125L60.125 10.877V40.877L50.125 50.877Z" fill="#003F65"/>
<path d="M0.125 31.877V10.877L10.125 0.876953H50.125L60.125 10.877V31.877H0.125Z" fill="#0DBBF2"/>
<path d="M27.125 10.877H8.125V22.877H27.125V10.877Z" fill="#003F65"/>
<path d="M52.125 10.877H33.125V22.877H52.125V10.877Z" fill="#003F65"/>
<path d="M10.125 60.877H0.125L10.125 50.877H20.125L10.125 60.877Z" fill="#C6C6C6"/>
<path d="M50.125 60.877H60.125L50.125 50.877H40.125L50.125 60.877Z" fill="#C6C6C6"/>
<path d="M16.465 35.877H13.785L11.465 37.217L10.125 39.537V42.217L11.465 44.537L13.785 45.877H16.465L18.785 44.537L20.125 42.217V39.537L18.785 37.217L16.465 35.877Z" fill="#12D9B5"/>
<path d="M46.465 35.877H43.785L41.465 37.217L40.125 39.537V42.217L41.465 44.537L43.785 45.877H46.465L48.785 44.537L50.125 42.217V39.537L48.785 37.217L46.465 35.877Z" fill="#12D9B5"/>
</svg>
