<svg width="61" height="61" viewBox="0 0 61 61" fill="none" xmlns="http://www.w3.org/2000/svg">
<g clip-path="url(#clip0)">
<path d="M10.125 50.2263H0.125V60.2263H10.125V50.2263Z" fill="#003F65"/>
<path d="M60.125 50.2263H50.125V60.2263H60.125V50.2263Z" fill="#003F65"/>
<path d="M60.125 51.2263L50.125 55.2263H10.125L0.125 51.2263V28.2263L3.125 23.2263L10.125 19.2263L12.125 2.22632L15.125 0.226318H45.125L48.125 2.22632L50.125 19.2263L57.125 23.2263L60.125 28.2263V51.2263Z" fill="#EFEFEF"/>
<path d="M10.125 14.2263H0.125V19.2263H10.125V14.2263Z" fill="#003F65"/>
<path d="M60.125 14.2263H50.125V19.2263H60.125V14.2263Z" fill="#003F65"/>
<path d="M15.125 28.2263H0.125V36.2263H15.125V28.2263Z" fill="#12D9B5"/>
<path d="M60.125 28.2263H45.125V36.2263H60.125V28.2263Z" fill="#12D9B5"/>
<path d="M45.125 28.2263H15.125V36.2263H45.125V28.2263Z" fill="#003F65"/>
<path d="M54.125 46.2263H6.125L4.125 39.2263H56.125L54.125 46.2263Z" fill="#C6C6C6"/>
<path d="M50.125 55.2263H10.125L0.125 51.2263H60.125L50.125 55.2263Z" fill="#C6C6C6"/>
<path d="M44.217 3.22632L45.331 3.96932L47.031 18.7273L30.125 17.7263L13.218 18.7263L14.918 3.96832L16.033 3.22632H44.217Z" fill="#C6C6C6"/>
</g>
<defs>
<clipPath id="clip0">
<rect width="60" height="60" fill="white" transform="translate(0.125 0.226318)"/>
</clipPath>
</defs>
</svg>
