<svg width="60" height="60" viewBox="0 0 60 60" fill="none" xmlns="http://www.w3.org/2000/svg">
<g clip-path="url(#clip0)">
<path d="M46.072 20H43.928L42.072 21.072L41 22.928V25.072L42.072 26.928L43.928 28H46.072L47.928 26.928L49 25.072V22.928L47.928 21.072L46.072 20Z" fill="#12D9B5"/>
<path d="M16.072 20H13.928L12.072 21.072L11 22.928V25.072L12.072 26.928L13.928 28H16.072L17.928 26.928L19 25.072V22.928L17.928 21.072L16.072 20Z" fill="#12D9B5"/>
<path d="M23 20L23 33L3 35L1.90735e-06 39.177L2.7661e-06 29.354L23 20Z" fill="#C6C6C6"/>
<path d="M36.9999 20L37 34L57 35L60 39.177L60 29.354L36.9999 20Z" fill="#C6C6C6"/>
<path d="M33.3201 58H26.6799L23.34 46.25L22 34.5L22.096 8L24.048 3L28.024 0H31.976L35.952 3L37.904 8L38 34.5L36.66 46.25L33.3201 58Z" fill="#EFEFEF"/>
<path d="M35.823 9L32.9115 7L30 6L27.0885 7L24.177 9L26 5.29846L29 2.79846H31L34 5.29846L35.823 9Z" fill="#003F65"/>
<path d="M40 60L30 58L20 60L21 55L30 53L39 55L40 60Z" fill="#12D9B5"/>
</g>
<defs>
<clipPath id="clip0">
<rect width="60" height="60" fill="white"/>
</clipPath>
</defs>
</svg>
